<svg width="472" height="142" viewBox="0 0 472 142" fill="none" xmlns="http://www.w3.org/2000/svg">
<path d="M28.0301 63.1263C15.3315 63.1263 5 53.0054 5 40.5606C5 28.1158 15.3315 18 28.0301 18C40.7287 18 51.0602 28.1209 51.0602 40.5606C51.0602 53.0003 40.7287 63.1212 28.0301 63.1212V63.1263ZM28.0301 26.5463C20.1432 26.5463 13.7242 32.8345 13.7242 40.5606C13.7242 48.2867 20.1432 54.5749 28.0301 54.5749C35.917 54.5749 42.3361 48.2867 42.3361 40.5606C42.3361 32.8345 35.917 26.5463 28.0301 26.5463Z" fill="white"/>
<path d="M28.0301 115.432C15.3315 115.432 5 105.311 5 92.8712C5 80.4314 15.3315 70.3105 28.0301 70.3105C40.7287 70.3105 51.0602 80.4314 51.0602 92.8712C51.0602 105.311 40.7287 115.432 28.0301 115.432ZM28.0301 78.8518C20.1432 78.8518 13.7242 85.14 13.7242 92.8661C13.7242 100.592 20.1432 106.88 28.0301 106.88C35.917 106.88 42.3361 100.592 42.3361 92.8661C42.3361 85.14 35.917 78.8518 28.0301 78.8518Z" fill="white"/>
<path d="M32.7022 58.8535H23.3682V75.0803H32.7022V58.8535Z" fill="white"/>
<path d="M103.359 60.8075C100.046 63.7795 95.8079 65.2629 90.6447 65.2629C84.2567 65.2629 79.2382 63.258 75.5842 59.2431C71.9302 55.2079 70.1006 49.6842 70.1006 42.6568C70.1006 35.0623 72.1783 29.2095 76.3336 25.0984C79.9463 21.5189 84.5461 19.7266 90.1279 19.7266C97.5961 19.7266 103.059 22.1264 106.517 26.9261C108.424 29.6196 109.447 32.3283 109.587 35.0421H100.31C99.7048 32.9561 98.9347 31.3815 97.9889 30.3183C96.3041 28.4298 93.8026 27.483 90.4897 27.483C87.1768 27.483 84.4531 28.8146 82.5098 31.4828C80.5613 34.1459 79.5897 37.9229 79.5897 42.7985C79.5897 47.6742 80.6181 51.3296 82.6751 53.7599C84.7321 56.1901 87.3473 57.4052 90.5207 57.4052C93.694 57.4052 96.2524 56.3622 97.9631 54.2763C98.9089 53.1574 99.6893 51.4714 100.315 49.2285H109.504C108.703 53.9675 106.651 57.8254 103.359 60.7974V60.8075Z" fill="white"/>
<path d="M143.269 35.9633C146.039 39.3657 147.424 43.3907 147.424 48.0335C147.424 52.6762 146.039 56.7924 143.269 60.1492C140.498 63.5009 136.291 65.1818 130.648 65.1818C125.004 65.1818 120.797 63.5059 118.026 60.1492C115.256 56.7975 113.871 52.7572 113.871 48.0335C113.871 43.3097 115.256 39.3657 118.026 35.9633C120.797 32.561 125.004 30.8599 130.648 30.8599C136.291 30.8599 140.498 32.561 143.269 35.9633ZM130.617 37.9683C128.105 37.9683 126.172 38.8391 124.818 40.5808C123.464 42.3224 122.786 44.8033 122.786 48.0335C122.786 51.2636 123.464 53.7496 124.818 55.5014C126.172 57.2531 128.105 58.129 130.617 58.129C133.128 58.129 135.056 57.2531 136.4 55.5014C137.744 53.7496 138.416 51.2636 138.416 48.0335C138.416 44.8033 137.744 42.3224 136.4 40.5808C135.056 38.8391 133.128 37.9683 130.617 37.9683Z" fill="white"/>
<path d="M153.75 20.562H162.335V64.058H153.75V20.562Z" fill="white"/>
<path d="M170.894 20.562H179.478V64.058H170.894V20.562Z" fill="white"/>
<path d="M215.956 54.6103C215.734 56.5191 214.721 58.4582 212.912 60.4226C210.101 63.5515 206.162 65.116 201.102 65.116C196.926 65.116 193.241 63.7996 190.047 61.1618C186.853 58.524 185.256 54.2357 185.256 48.2968C185.256 42.7275 186.698 38.4594 189.577 35.4925C192.461 32.5206 196.198 31.0371 200.798 31.0371C203.526 31.0371 205.987 31.5383 208.178 32.5408C210.369 33.5433 212.173 35.128 213.6 37.2899C214.886 39.1986 215.719 41.4111 216.101 43.9274C216.323 45.4008 216.411 47.5272 216.37 50.3017H193.898C194.017 53.5268 195.05 55.79 196.999 57.0912C198.182 57.8962 199.609 58.3012 201.278 58.3012C203.046 58.3012 204.483 57.8101 205.583 56.8279C206.188 56.2963 206.72 55.5571 207.18 54.6154H215.946L215.956 54.6103ZM207.46 44.7578C207.32 42.5351 206.633 40.8492 205.397 39.6948C204.162 38.5455 202.632 37.9683 200.803 37.9683C198.813 37.9683 197.273 38.5759 196.177 39.7961C195.081 41.0162 194.394 42.6668 194.115 44.7527H207.46V44.7578Z" fill="white"/>
<path d="M250.569 43.4266H241.772C241.612 42.2266 241.198 41.1432 240.537 40.1812C239.57 38.8851 238.077 38.232 236.051 38.232C233.156 38.232 231.182 39.6395 230.117 42.4494C229.554 43.943 229.275 45.9327 229.275 48.4085C229.275 50.8843 229.554 52.6665 230.117 54.1044C231.141 56.7776 233.069 58.1193 235.901 58.1193C237.911 58.1193 239.333 57.5877 240.18 56.5245C241.028 55.4613 241.534 54.0841 241.715 52.3931H250.481C250.279 54.9499 249.339 57.37 247.648 59.6534C244.956 63.3342 240.971 65.172 235.689 65.172C230.407 65.172 226.52 63.638 224.029 60.5698C221.538 57.5016 220.292 53.5171 220.292 48.6212C220.292 43.0924 221.667 38.7939 224.417 35.7258C227.166 32.6576 230.965 31.1235 235.803 31.1235C239.922 31.1235 243.286 32.0298 245.907 33.8373C248.527 35.6448 250.078 38.8446 250.558 43.4266H250.569Z" fill="white"/>
<path d="M271.5 58.0638V64.3469L267.433 64.4938C263.376 64.6305 260.606 63.9419 259.117 62.4281C258.151 61.4661 257.67 59.9776 257.67 57.9726V38.1714H253.091V32.1819H257.67V23.2153H266.167V32.1869H271.5V38.1764H266.167V55.1728C266.167 56.4892 266.337 57.3145 266.678 57.6385C267.019 57.9625 268.063 58.1245 269.81 58.1245C270.074 58.1245 270.348 58.1245 270.637 58.1093C270.927 58.0942 271.216 58.084 271.495 58.0638H271.5Z" fill="white"/>
<path d="M285.837 20.2935V28.055H277.134V20.2935H285.837ZM285.837 31.8927V64.0578H277.134V31.8927H285.837Z" fill="white"/>
<path d="M290.928 31.8931H300.567L307.405 55.6182L314.392 31.8931H323.607L311.767 64.0581H302.702L290.923 31.8931H290.928Z" fill="white"/>
<path d="M356.566 54.6103C356.344 56.5191 355.331 58.4582 353.522 60.4226C350.71 63.5515 346.772 65.116 341.712 65.116C337.536 65.116 333.851 63.7996 330.657 61.1618C327.463 58.524 325.866 54.2357 325.866 48.2968C325.866 42.7275 327.308 38.4594 330.187 35.4925C333.066 32.5256 336.808 31.0371 341.407 31.0371C344.136 31.0371 346.596 31.5383 348.788 32.5408C350.979 33.5433 352.783 35.128 354.209 37.2899C355.496 39.1986 356.328 41.4111 356.711 43.9274C356.933 45.4008 357.021 47.5272 356.98 50.3017H334.508C334.627 53.5268 335.66 55.79 337.609 57.0912C338.792 57.8962 340.219 58.3012 341.888 58.3012C343.656 58.3012 345.092 57.8101 346.193 56.8279C346.798 56.2963 347.33 55.5571 347.79 54.6154H356.556L356.566 54.6103ZM348.075 44.7578C347.935 42.5351 347.248 40.8492 346.012 39.6948C344.777 38.5404 343.247 37.9683 341.418 37.9683C339.428 37.9683 337.888 38.5759 336.792 39.7961C335.696 41.0162 335.009 42.6668 334.73 44.7527H348.075V44.7578Z" fill="white"/>
<path d="M80.5563 113.584H71.9097V70.0879H85.4042L93.4771 104.288L101.488 70.0879H114.833V113.584H106.186V84.163C106.186 83.3174 106.196 82.1327 106.217 80.6088C106.238 79.0848 106.248 77.9102 106.248 77.0849L97.8444 113.589H88.836L80.4943 77.0849C80.4943 77.9102 80.5046 79.0848 80.5253 80.6088C80.546 82.1327 80.5563 83.3174 80.5563 84.163V113.584Z" fill="white"/>
<path d="M150.861 104.142C150.639 106.05 149.626 107.989 147.817 109.954C145.005 113.083 141.067 114.647 136.007 114.647C131.831 114.647 128.146 113.331 124.952 110.693C121.758 108.055 120.161 103.767 120.161 97.828C120.161 92.2588 121.603 87.9907 124.482 85.0238C127.361 82.0569 131.102 80.5684 135.702 80.5684C138.431 80.5684 140.891 81.0696 143.083 82.0721C145.274 83.0745 147.078 84.6592 148.504 86.8211C149.791 88.7299 150.623 90.9424 151.006 93.4587C151.228 94.932 151.316 97.0585 151.275 99.833H128.803C128.921 103.058 129.955 105.321 131.904 106.622C133.087 107.427 134.514 107.832 136.183 107.832C137.951 107.832 139.387 107.341 140.488 106.359C141.093 105.828 141.625 105.088 142.085 104.147H150.851L150.861 104.142ZM142.369 94.284C142.23 92.0613 141.543 90.3753 140.307 89.221C139.072 88.0666 137.542 87.4945 135.713 87.4945C133.723 87.4945 132.183 88.1021 131.087 89.3222C129.991 90.5424 129.304 92.193 129.025 94.2789H142.369V94.284Z" fill="white"/>
<path d="M175.504 90.2693C174.78 88.715 173.364 87.9404 171.255 87.9404C168.805 87.9404 167.157 88.715 166.314 90.2693C165.854 91.1554 165.622 92.4717 165.622 94.2235V113.579H156.918V81.475H165.26V86.1683C166.325 84.4976 167.327 83.3078 168.273 82.5989C169.937 81.3383 172.098 80.7104 174.749 80.7104C177.261 80.7104 179.287 81.2522 180.832 82.3357C182.078 83.3381 183.023 84.6292 183.664 86.2038C184.791 84.3153 186.187 82.928 187.851 82.042C189.618 81.156 191.587 80.7155 193.753 80.7155C195.2 80.7155 196.627 80.9889 198.032 81.5408C199.438 82.0926 200.715 83.0546 201.857 84.4317C202.782 85.5507 203.402 86.9278 203.723 88.5631C203.924 89.6466 204.022 91.2262 204.022 93.3122L203.96 113.584H195.164V93.1046C195.164 91.8844 194.962 90.882 194.559 90.0972C193.794 88.6036 192.389 87.8543 190.342 87.8543C187.975 87.8543 186.336 88.8163 185.432 90.7453C184.972 91.768 184.739 92.9983 184.739 94.4362V113.589H176.093V94.4362C176.093 92.5274 175.891 91.1402 175.488 90.2744L175.504 90.2693Z" fill="white"/>
<path d="M239.302 85.4897C242.072 88.892 243.457 92.9171 243.457 97.5598C243.457 102.203 242.072 106.319 239.302 109.676C236.532 113.027 232.325 114.708 226.681 114.708C221.037 114.708 216.83 113.032 214.06 109.676C211.289 106.324 209.904 102.284 209.904 97.5598C209.904 92.8361 211.289 88.892 214.06 85.4897C216.83 82.0874 221.037 80.3862 226.681 80.3862C232.325 80.3862 236.532 82.0874 239.302 85.4897ZM226.65 87.4946C224.138 87.4946 222.205 88.3655 220.851 90.1071C219.497 91.8488 218.82 94.3297 218.82 97.5598C218.82 100.79 219.497 103.276 220.851 105.028C222.205 106.78 224.138 107.655 226.65 107.655C229.162 107.655 231.089 106.78 232.433 105.028C233.777 103.276 234.449 100.79 234.449 97.5598C234.449 94.3297 233.777 91.8488 232.433 90.1071C231.089 88.3655 229.162 87.4946 226.65 87.4946Z" fill="white"/>
<path d="M266.11 89.1807C262.657 89.1807 260.337 90.2844 259.153 92.4868C258.492 93.7272 258.161 95.6359 258.161 98.213V113.589H249.514V81.4242H257.706V87.0289C259.029 84.8822 260.187 83.419 261.169 82.6342C262.776 81.3179 264.864 80.6597 267.433 80.6597C267.593 80.6597 267.727 80.6597 267.841 80.6749C267.955 80.69 268.198 80.7002 268.58 80.7204V89.3376C268.037 89.2768 267.557 89.2414 267.133 89.2212C266.709 89.2009 266.368 89.1908 266.11 89.1908V89.1807Z" fill="white"/>
<path d="M288.018 105.144L294.794 81.4189H303.921L292.654 113.052C290.484 119.153 288.768 122.935 287.501 124.399C286.235 125.862 283.708 126.596 279.909 126.596C279.144 126.596 278.534 126.596 278.069 126.581C277.604 126.565 276.917 126.535 275.991 126.479V119.751L277.077 119.811C277.919 119.852 278.726 119.822 279.485 119.725C280.245 119.629 280.891 119.401 281.413 119.047C281.914 118.713 282.38 118.014 282.814 116.951C283.248 115.888 283.424 115.24 283.341 115.002L271.293 81.4189H280.845L288.013 105.144H288.018Z" fill="white"/>
</svg>
